<svg width="23" height="23" viewBox="0 0 23 23" fill="none" xmlns="http://www.w3.org/2000/svg">
<path fill-rule="evenodd" clip-rule="evenodd" d="M3.87902 0.59697C4.59332 0.315904 5.41124 0.123978 6.60821 0.0688567C7.8077 0.0128254 8.19125 0 11.2447 0C14.2982 0 14.6814 0.013735 15.8803 0.0688567C17.0764 0.123069 17.8938 0.315904 18.6095 0.59697C19.3479 0.887224 19.9756 1.27562 20.6004 1.90843C21.2252 2.54124 21.6094 3.17496 21.8973 3.92256C22.1752 4.64487 22.365 5.47188 22.4195 6.68238C22.474 7.89469 22.4867 8.28227 22.4867 11.37C22.4867 14.4577 22.474 14.8444 22.4195 16.0576C22.3659 17.268 22.1752 18.0947 21.8973 18.8174C21.6094 19.565 21.2262 20.1998 20.6004 20.8316C19.9746 21.4634 19.3479 21.852 18.6086 22.143C17.8938 22.4241 17.0765 22.616 15.8794 22.6711C15.1791 22.7039 14.7571 22.7219 13.9187 22.7312V14.31H17.132L17.6131 10.5373H13.9187V8.12855C13.9187 7.0363 14.2187 6.29187 15.7677 6.29187L17.7433 6.29094V2.91672C17.4015 2.87091 16.2288 2.76822 14.8645 2.76822C12.0162 2.76822 10.0661 4.5263 10.0661 7.75511V10.5374H6.84452V14.3101H10.066V22.739C8.06116 22.7351 7.63252 22.7182 6.60821 22.6711C5.41124 22.616 4.59467 22.4241 3.87902 22.143C3.13927 21.852 2.51295 21.4631 1.88725 20.8316C1.26156 20.2 0.877377 19.565 0.590345 18.8174C0.312398 18.0947 0.122602 17.2681 0.0680925 16.0576C0.012683 14.8453 0 14.4577 0 11.37C0 8.28227 0.012683 7.89469 0.0680925 6.68238C0.122602 5.47197 0.312398 4.64533 0.590345 3.92256C0.877377 3.1745 1.26147 2.54024 1.88725 1.90843C2.51304 1.27662 3.13927 0.887224 3.87902 0.59697Z" fill="black"/>
</svg>
