<svg width="19" height="19" viewBox="0 0 19 19" fill="none" xmlns="http://www.w3.org/2000/svg">
<path d="M9.11852 0.788391C4.20167 0.788391 0.220215 4.8206 0.220215 9.78659C0.220215 14.7586 4.20766 18.7848 9.11852 18.7848C14.0354 18.7848 18.0168 14.7526 18.0168 9.78659C18.0168 4.8206 14.0294 0.788391 9.11852 0.788391Z" fill="#E52529"/>
<path d="M7.9079 12.6628C6.13787 11.742 6.13788 9.78655 6.13788 9.78655C6.13788 9.78655 6.13787 7.8363 7.9079 6.91031C10.1128 5.76188 11.8982 7.59834 11.8982 7.59834C11.8982 7.59834 9.84676 4.5876 6.47551 6.16022C4.38831 7.13794 4.22461 9.01059 4.22461 9.78655C4.22461 10.5625 4.38319 12.4352 6.47551 13.4129C9.84676 14.9855 11.8982 11.9748 11.8982 11.9748C11.8982 11.9748 10.1128 13.8112 7.9079 12.6628Z" fill="#E6E6E6"/>
<path d="M15.3878 8.59665L13.9605 9.15021L13.0346 7.91895L13.1164 9.4606L11.6738 9.96759L13.1523 10.3711L13.1778 11.9128L14.0117 10.6194L15.4748 11.0643L14.513 9.86413L15.3878 8.59665Z" fill="#E6E6E6"/>
</svg>
