<svg width="23" height="23" viewBox="0 0 23 23" fill="none" xmlns="http://www.w3.org/2000/svg">
<path d="M7.49648 11.37C7.49648 9.27692 9.17396 7.5797 11.2438 7.5797C13.3137 7.5797 14.9921 9.27692 14.9921 11.37C14.9921 13.4631 13.3137 15.1603 11.2438 15.1603C9.17396 15.1603 7.49648 13.4631 7.49648 11.37ZM5.47025 11.37C5.47025 14.5945 8.05507 17.2084 11.2438 17.2084C14.4326 17.2084 17.0174 14.5945 17.0174 11.37C17.0174 8.14547 14.4326 5.53164 11.2438 5.53164C8.05507 5.53164 5.47025 8.14547 5.47025 11.37ZM15.8967 5.30015C15.8966 5.57 15.9756 5.83383 16.1238 6.05826C16.2719 6.28269 16.4826 6.45766 16.7291 6.56103C16.9756 6.66439 17.2469 6.69152 17.5086 6.63898C17.7704 6.58644 18.0109 6.45659 18.1996 6.26586C18.3884 6.07512 18.517 5.83206 18.5692 5.56741C18.6213 5.30276 18.5947 5.02842 18.4927 4.77907C18.3907 4.52971 18.2178 4.31655 17.996 4.16654C17.7742 4.01653 17.5133 3.9364 17.2465 3.93629H17.2459C16.8882 3.93646 16.5452 4.08019 16.2922 4.33591C16.0393 4.59163 15.897 4.93843 15.8967 5.30015ZM6.70131 20.6249C5.60509 20.5744 5.00925 20.3898 4.61329 20.2338C4.08834 20.0271 3.71379 19.781 3.31998 19.3833C2.92618 18.9856 2.68241 18.6072 2.47895 18.0764C2.32459 17.6762 2.14199 17.0735 2.09216 15.9649C2.03765 14.7664 2.02677 14.4064 2.02677 11.3701C2.02677 8.33376 2.03855 7.97474 2.09216 6.77525C2.14208 5.66672 2.32603 5.0652 2.47895 4.66379C2.68331 4.13295 2.92672 3.75419 3.31998 3.35597C3.71325 2.95775 4.08744 2.71125 4.61329 2.50549C5.00907 2.34941 5.60509 2.16476 6.70131 2.11437C7.8865 2.05924 8.24253 2.04824 11.2438 2.04824C14.2451 2.04824 14.6015 2.06015 15.7877 2.11437C16.8839 2.16485 17.4787 2.35086 17.8757 2.50549C18.4006 2.71125 18.7752 2.95829 19.169 3.35597C19.5628 3.75365 19.8057 4.13295 20.01 4.66379C20.1644 5.06402 20.347 5.66672 20.3968 6.77525C20.4513 7.97474 20.4622 8.33376 20.4622 11.3701C20.4622 14.4064 20.4513 14.7654 20.3968 15.9649C20.3469 17.0735 20.1634 17.676 20.01 18.0764C19.8057 18.6072 19.5623 18.986 19.169 19.3833C18.7757 19.7806 18.4006 20.0271 17.8757 20.2338C17.4799 20.3899 16.8839 20.5745 15.7877 20.6249C14.6025 20.68 14.2465 20.691 11.2438 20.691C8.24118 20.691 7.88614 20.68 6.70131 20.6249ZM6.60821 0.0688567C5.41124 0.123978 4.59332 0.315904 3.87903 0.59697C3.13927 0.887224 2.51304 1.27662 1.88725 1.90843C1.26147 2.54024 0.877377 3.1745 0.590345 3.92256C0.312398 4.64533 0.122603 5.47197 0.0680925 6.68238C0.012683 7.89469 0 8.28227 0 11.37C0 14.4577 0.012683 14.8453 0.0680925 16.0576C0.122603 17.2681 0.312398 18.0947 0.590345 18.8174C0.877377 19.565 1.26156 20.2 1.88725 20.8316C2.51295 21.4631 3.13927 21.852 3.87903 22.143C4.59467 22.4241 5.41124 22.616 6.60821 22.6711C7.8077 22.7263 8.19035 22.74 11.2438 22.74C14.2973 22.74 14.6806 22.7272 15.8794 22.6711C17.0765 22.616 17.8939 22.4241 18.6086 22.143C19.3479 21.852 19.9746 21.4634 20.6004 20.8316C21.2262 20.1998 21.6094 19.565 21.8973 18.8174C22.1752 18.0947 22.3659 17.268 22.4195 16.0576C22.474 14.8444 22.4867 14.4577 22.4867 11.37C22.4867 8.28227 22.474 7.89469 22.4195 6.68238C22.365 5.47188 22.1752 4.64487 21.8973 3.92256C21.6094 3.17496 21.2252 2.54124 20.6004 1.90843C19.9756 1.27562 19.3479 0.887224 18.6095 0.59697C17.8939 0.315904 17.0764 0.123069 15.8803 0.0688567C14.6815 0.013735 14.2982 0 11.2447 0C8.19125 0 7.8077 0.0128254 6.60821 0.0688567Z" fill="black"/>
</svg>
