<svg width="14" height="15" viewBox="0 0 14 15" fill="none" xmlns="http://www.w3.org/2000/svg">
<path d="M9.13012 9.79237L8.00018 11.3635C6.72899 10.7208 3.93237 8.79255 2.91542 6.22161L4.53972 5.07896C4.68096 4.86472 4.75158 4.57906 4.68096 4.36481C4.39848 3.50783 4.25723 2.65085 4.25723 1.79386C4.25723 1.36537 3.97475 1.07971 3.55102 1.07971H1.07926C0.655533 1.07971 0.373047 1.36537 0.373047 1.79386C0.373047 8.50689 5.74029 13.9344 12.3787 13.9344C12.8024 13.9344 13.0849 13.6488 13.0849 13.2203V10.7922C13.0849 10.3637 12.8024 10.078 12.3787 10.078C11.4606 10.078 10.6132 9.9352 9.83634 9.64954C9.62447 9.50671 9.34199 9.57812 9.13012 9.79237Z" fill="#0D0D2D" stroke="#0D0D2D" stroke-width="0.595238" stroke-linecap="round"/>
</svg>
